<svg width="309" height="668" viewBox="0 0 309 668" fill="none" xmlns="http://www.w3.org/2000/svg">
<path d="M307.199 1067.47C294.286 1103.54 215.453 1119.07 131.12 1102.16C46.7868 1085.24 -11.1111 1042.29 1.80106 1006.22C5.59641 995.617 15.0888 986.791 28.7399 980.041C6.19208 962.909 -4.53882 943.539 1.80106 925.828C5.59644 915.226 15.0888 906.4 28.7399 899.649C6.19235 882.517 -4.5386 863.148 1.80106 845.438C5.59641 834.835 15.0888 826.01 28.7399 819.259C6.19208 802.127 -4.53882 782.757 1.80106 765.046C5.59644 754.444 15.0888 745.618 28.7399 738.867C6.19235 721.735 -4.5386 702.366 1.80106 684.656C5.59641 674.054 15.0888 665.228 28.7399 658.477C6.19208 641.345 -4.53882 621.975 1.80106 604.265C5.59644 593.662 15.0888 584.836 28.7399 578.085C6.19235 560.953 -4.5386 541.584 1.80106 523.874C5.59641 513.272 15.0889 504.446 28.7399 497.695C6.19205 480.563 -4.53882 461.193 1.80106 443.483C5.59644 432.88 15.0888 424.054 28.7399 417.304C6.19235 400.172 -4.5386 380.803 1.80106 363.092C5.59641 352.49 15.0889 343.664 28.7399 336.913C6.19205 319.781 -4.53882 300.411 1.80106 282.701C5.59644 272.098 15.0888 263.272 28.7399 256.522C6.19235 239.39 -4.5386 220.021 1.80106 202.31C5.59641 191.708 15.0889 182.882 28.7399 176.131C6.19205 158.999 -4.53882 139.629 1.80106 121.919C5.59644 111.316 15.0888 102.491 28.7399 95.7397C6.19235 78.6078 -4.5386 59.2387 1.80106 41.5283C14.7137 5.45669 93.5471 -10.0732 177.88 6.84107C262.214 23.7554 320.111 66.7087 307.199 102.78C303.403 113.383 293.913 122.21 280.261 128.961C302.808 146.093 313.539 165.461 307.199 183.172C303.403 193.774 293.913 202.601 280.262 209.351C302.809 226.483 313.539 245.852 307.199 263.562C303.403 274.165 293.913 282.992 280.261 289.743C302.808 306.875 313.539 326.243 307.199 343.954C303.403 354.556 293.913 363.383 280.262 370.133C302.809 387.265 313.539 406.634 307.199 424.344C303.403 434.947 293.913 443.774 280.261 450.525C302.808 467.657 313.539 487.025 307.199 504.735C303.403 515.338 293.913 524.165 280.262 530.915C302.809 548.047 313.539 567.416 307.199 585.126C303.403 595.729 293.913 604.556 280.261 611.307C302.808 628.439 313.539 647.807 307.199 665.517C303.403 676.12 293.913 684.946 280.262 691.697C302.809 708.829 313.539 728.198 307.199 745.908C303.403 756.51 293.913 765.338 280.261 772.089C302.808 789.22 313.539 808.589 307.199 826.299C303.403 836.901 293.913 845.728 280.262 852.479C302.809 869.611 313.539 888.98 307.199 906.69C303.403 917.292 293.913 926.12 280.261 932.87C302.808 950.002 313.539 969.371 307.199 987.081C303.403 997.683 293.913 1006.51 280.262 1013.26C302.809 1030.39 313.539 1049.76 307.199 1067.47Z" fill="#DEF2AC"/>
</svg>
