<svg width="1639" height="351" viewBox="0 0 1639 351" fill="none" xmlns="http://www.w3.org/2000/svg">
<path d="M1577.16 2.87594C1630.44 17.5019 1653.38 106.795 1628.4 202.318C1603.41 297.841 1539.97 363.421 1486.69 348.796C1471.03 344.497 1458 333.745 1448.03 318.282C1422.72 343.822 1394.11 355.977 1367.95 348.796C1352.29 344.497 1339.26 333.745 1329.29 318.282C1303.98 343.822 1275.38 355.977 1249.22 348.796C1233.56 344.497 1220.52 333.745 1210.55 318.282C1185.25 343.822 1156.64 355.977 1130.48 348.796C1114.82 344.497 1101.78 333.745 1091.81 318.282C1066.51 343.822 1037.9 355.977 1011.74 348.796C996.081 344.497 983.045 333.745 973.074 318.282C947.77 343.822 919.161 355.977 893.003 348.796C877.343 344.497 864.307 333.745 854.336 318.282C829.032 343.822 800.424 355.977 774.265 348.796C758.605 344.497 745.57 333.745 735.599 318.282C710.294 343.822 681.685 355.977 655.527 348.796C639.867 344.497 626.831 333.745 616.86 318.282C591.556 343.822 562.948 355.977 536.789 348.796C521.13 344.497 508.094 333.745 498.123 318.282C472.818 343.822 444.209 355.977 418.051 348.796C402.391 344.497 389.355 333.745 379.384 318.282C354.08 343.822 325.472 355.977 299.313 348.796C283.654 344.497 270.618 333.745 260.647 318.282C235.342 343.822 206.734 355.977 180.575 348.796C164.915 344.497 151.879 333.745 141.908 318.282C116.604 343.822 87.996 355.977 61.8375 348.796C8.55956 334.17 -14.3782 244.876 10.6043 149.353C35.5869 53.8302 99.0292 -11.7499 152.307 2.87594C167.967 7.17494 181.005 17.9251 190.976 33.388C216.28 7.84927 244.887 -4.30503 271.046 2.87594C286.705 7.17492 299.743 17.9247 309.713 33.3869C335.017 7.84832 363.625 -4.30494 389.783 2.87594C405.443 7.17494 418.481 17.9251 428.452 33.388C453.756 7.84927 482.363 -4.30503 508.522 2.87594C524.181 7.17492 537.218 17.9247 547.189 33.3869C572.493 7.84832 601.101 -4.30494 627.259 2.87594C642.919 7.17494 655.957 17.9251 665.928 33.388C691.232 7.84927 719.839 -4.30503 745.997 2.87594C761.657 7.17492 774.694 17.9247 784.665 33.3869C809.969 7.84832 838.577 -4.30494 864.735 2.87594C880.395 7.17494 893.433 17.9251 903.404 33.388C928.708 7.84926 957.315 -4.30503 983.473 2.87594C999.133 7.17491 1012.17 17.9247 1022.14 33.3869C1047.44 7.84832 1076.05 -4.30492 1102.21 2.87594C1117.87 7.17494 1130.91 17.9252 1140.88 33.388C1166.18 7.84926 1194.79 -4.30503 1220.95 2.87594C1236.61 7.17491 1249.65 17.9247 1259.62 33.3869C1284.92 7.84832 1313.53 -4.30493 1339.69 2.87594C1355.35 7.17494 1368.38 17.9251 1378.36 33.388C1403.66 7.84927 1432.27 -4.30503 1458.43 2.87594C1474.08 7.17491 1487.12 17.9247 1497.09 33.3869C1522.4 7.84832 1551 -4.30493 1577.16 2.87594Z" fill="#DEF2AC"/>
</svg>
