<svg width="24" height="25" viewBox="0 0 24 25" fill="none" xmlns="http://www.w3.org/2000/svg">
<g clip-path="url(#clip0_2202_129)">
<path d="M12 3.05324C15.2063 3.05324 15.5859 3.06731 16.8469 3.12356C18.0188 3.17512 18.6516 3.37199 19.0734 3.53606C19.6313 3.75168 20.0344 4.01418 20.4516 4.43137C20.8734 4.85324 21.1313 5.25168 21.3469 5.80949C21.5109 6.23137 21.7078 6.86887 21.7594 8.03606C21.8156 9.30168 21.8297 9.68137 21.8297 12.8829C21.8297 16.0892 21.8156 16.4689 21.7594 17.7298C21.7078 18.9017 21.5109 19.5345 21.3469 19.9564C21.1313 20.5142 20.8687 20.9173 20.4516 21.3345C20.0297 21.7564 19.6313 22.0142 19.0734 22.2298C18.6516 22.3939 18.0141 22.5907 16.8469 22.6423C15.5813 22.6986 15.2016 22.7126 12 22.7126C8.79375 22.7126 8.41406 22.6986 7.15313 22.6423C5.98125 22.5907 5.34844 22.3939 4.92656 22.2298C4.36875 22.0142 3.96563 21.7517 3.54844 21.3345C3.12656 20.9126 2.86875 20.5142 2.65313 19.9564C2.48906 19.5345 2.29219 18.897 2.24063 17.7298C2.18438 16.4642 2.17031 16.0845 2.17031 12.8829C2.17031 9.67668 2.18438 9.29699 2.24063 8.03606C2.29219 6.86418 2.48906 6.23137 2.65313 5.80949C2.86875 5.25168 3.13125 4.84856 3.54844 4.43137C3.97031 4.00949 4.36875 3.75168 4.92656 3.53606C5.34844 3.37199 5.98594 3.17512 7.15313 3.12356C8.41406 3.06731 8.79375 3.05324 12 3.05324ZM12 0.892307C8.74219 0.892307 8.33438 0.90637 7.05469 0.96262C5.77969 1.01887 4.90313 1.22512 4.14375 1.52043C3.35156 1.82981 2.68125 2.23762 2.01563 2.90793C1.34531 3.57356 0.9375 4.24387 0.628125 5.03137C0.332812 5.79543 0.126563 6.66731 0.0703125 7.94231C0.0140625 9.22668 0 9.63449 0 12.8923C0 16.1501 0.0140625 16.5579 0.0703125 17.8376C0.126563 19.1126 0.332812 19.9892 0.628125 20.7486C0.9375 21.5407 1.34531 22.2111 2.01563 22.8767C2.68125 23.5423 3.35156 23.9548 4.13906 24.2595C4.90313 24.5548 5.775 24.7611 7.05 24.8173C8.32969 24.8736 8.7375 24.8876 11.9953 24.8876C15.2531 24.8876 15.6609 24.8736 16.9406 24.8173C18.2156 24.7611 19.0922 24.5548 19.8516 24.2595C20.6391 23.9548 21.3094 23.5423 21.975 22.8767C22.6406 22.2111 23.0531 21.5407 23.3578 20.7532C23.6531 19.9892 23.8594 19.1173 23.9156 17.8423C23.9719 16.5626 23.9859 16.1548 23.9859 12.897C23.9859 9.63918 23.9719 9.23137 23.9156 7.95168C23.8594 6.67668 23.6531 5.80012 23.3578 5.04074C23.0625 4.24387 22.6547 3.57356 21.9844 2.90793C21.3188 2.24231 20.6484 1.82981 19.8609 1.52512C19.0969 1.22981 18.225 1.02356 16.95 0.967307C15.6656 0.90637 15.2578 0.892307 12 0.892307Z" fill="white"/>
<path d="M12 6.72824C8.59688 6.72824 5.83594 9.48918 5.83594 12.8923C5.83594 16.2954 8.59688 19.0564 12 19.0564C15.4031 19.0564 18.1641 16.2954 18.1641 12.8923C18.1641 9.48918 15.4031 6.72824 12 6.72824ZM12 16.8907C9.79219 16.8907 8.00156 15.1001 8.00156 12.8923C8.00156 10.6845 9.79219 8.89387 12 8.89387C14.2078 8.89387 15.9984 10.6845 15.9984 12.8923C15.9984 15.1001 14.2078 16.8907 12 16.8907Z" fill="white"/>
<path d="M19.8469 6.48445C19.8469 7.28133 19.2 7.92352 18.4078 7.92352C17.6109 7.92352 16.9688 7.27664 16.9688 6.48445C16.9688 5.68758 17.6156 5.04539 18.4078 5.04539C19.2 5.04539 19.8469 5.69226 19.8469 6.48445Z" fill="white"/>
</g>
<defs>
<clipPath id="clip0_2202_129">
<rect width="24" height="24" fill="white" transform="translate(0 0.892307)"/>
</clipPath>
</defs>
</svg>
