<svg width="24" height="25" viewBox="0 0 24 25" fill="none" xmlns="http://www.w3.org/2000/svg">
<g clip-path="url(#clip0_2202_126)">
<path d="M17.0725 0.892307H13.0278V17.2401C13.0278 19.188 11.4722 20.788 9.53626 20.788C7.60034 20.788 6.04469 19.188 6.04469 17.2401C6.04469 15.3271 7.56577 13.7618 9.43257 13.6923V9.58797C5.31872 9.65751 2 13.0314 2 17.2401C2 21.4836 5.38786 24.8923 9.57085 24.8923C13.7538 24.8923 17.1416 21.4488 17.1416 17.2401V8.85751C18.6627 9.97057 20.5295 10.6314 22.5 10.6662V6.56187C19.4579 6.45753 17.0725 3.95317 17.0725 0.892307Z" fill="white"/>
</g>
<defs>
<clipPath id="clip0_2202_126">
<rect width="24" height="24" fill="white" transform="translate(0 0.892307)"/>
</clipPath>
</defs>
</svg>
