<svg width="24" height="25" viewBox="0 0 24 25" fill="none" xmlns="http://www.w3.org/2000/svg">
<path d="M23.7609 8.09235C23.7609 8.09235 23.5266 6.43766 22.8047 5.7111C21.8906 4.75485 20.8688 4.75016 20.4 4.69391C17.0438 4.45016 12.0047 4.45016 12.0047 4.45016H11.9953C11.9953 4.45016 6.95625 4.45016 3.6 4.69391C3.13125 4.75016 2.10938 4.75485 1.19531 5.7111C0.473438 6.43766 0.24375 8.09235 0.24375 8.09235C0.24375 8.09235 0 10.0377 0 11.9783V13.797C0 15.7377 0.239062 17.683 0.239062 17.683C0.239062 17.683 0.473437 19.3377 1.19062 20.0642C2.10469 21.0205 3.30469 20.9877 3.83906 21.0908C5.76094 21.2736 12 21.3299 12 21.3299C12 21.3299 17.0438 21.3205 20.4 21.0814C20.8688 21.0252 21.8906 21.0205 22.8047 20.0642C23.5266 19.3377 23.7609 17.683 23.7609 17.683C23.7609 17.683 24 15.7424 24 13.797V11.9783C24 10.0377 23.7609 8.09235 23.7609 8.09235ZM9.52031 16.0049V9.25954L16.0031 12.6439L9.52031 16.0049Z" fill="white"/>
</svg>
